<?xml version="1.0" encoding="utf-8"?>
<!-- Generator: Adobe Illustrator 15.1.0, SVG Export Plug-In . SVG Version: 6.00 Build 0)  -->
<!DOCTYPE svg PUBLIC "-//W3C//DTD SVG 1.1//EN" "http://www.w3.org/Graphics/SVG/1.1/DTD/svg11.dtd">
<svg version="1.1" xmlns="http://www.w3.org/2000/svg" xmlns:xlink="http://www.w3.org/1999/xlink" x="0px" y="0px" width="612px"
	 height="1008px" viewBox="0 0 612 1008" enable-background="new 0 0 612 1008" xml:space="preserve">
<g id="svg3336" inkscape:version="0.91 r13725" sodipodi:docname="panda G_02.svg" xmlns:dc="http://purl.org/dc/elements/1.1/" xmlns:cc="http://creativecommons.org/ns#" xmlns:rdf="http://www.w3.org/1999/02/22-rdf-syntax-ns#" xmlns:svg="http://www.w3.org/2000/svg" xmlns:sodipodi="http://sodipodi.sourceforge.net/DTD/sodipodi-0.dtd" xmlns:inkscape="http://www.inkscape.org/namespaces/inkscape">
	
		<sodipodi:namedview  id="namedview3372" inkscape:window-maximized="0" showguides="false" pagecolor="#ffffff" inkscape:cy="731.30015" inkscape:cx="416.02276" guidetolerance="10" gridtolerance="10" inkscape:zoom="0.80257937" objecttolerance="10" borderopacity="1" showgrid="false" bordercolor="#666666" inkscape:current-layer="svg3336" inkscape:window-y="0" inkscape:window-x="960" inkscape:window-height="987" inkscape:window-width="942" inkscape:pageshadow="2" inkscape:pageopacity="0">
		</sodipodi:namedview>
	<path id="path3350-5" inkscape:connector-curvature="0" sodipodi:nodetypes="ccccc" d="M472.67,232.042
		c31.192,23.22-6.967,36.523-34.18,32.954c-30.957-7.464-50.479-22.459-29.365-51.194c9.473-12.922,24.846-19.196,40.6-18.268
		C480.872,198.083,480.156,218.004,472.67,232.042L472.67,232.042z"/>
	<g id="Layer_1" display="none">
		
			<image display="inline" overflow="visible" opacity="0.39" enable-background="new    " width="1440" height="1024" id="image3339" xlink:href="C2293BEF.jpeg"  transform="matrix(1 0 0 1 -803.9951 -8)">
		</image>
	</g>
	<path id="path3348" inkscape:connector-curvature="0" sodipodi:nodetypes="cccccccsccscsccccccssc" d="M392.729,255.881
		c-27.652,0.079-65.57,16.254-60.24,42.926c0,0,9.514,20.307,22.18,14.307c4.491-2.128,3.507-13.972,6-17.779
		c4.538-6.927,11.795-7.139,14.367-4.275c5.821,6.478-0.841,15.6,7.85,19.846c1.518,0.742,3.502,1.332,5.563,1.578
		c0.054,0.771,3.212,10.078,0.568,15.287c-3.318,6.54-23.596,9.485-66.659,4.336c-4.772-0.916-11.162,7.51,0.008,13.074
		c85.136,23.32,111.136,9.126,141.72-34.156c9.204-10.785,1.382-16.453-4.084-12.217c-13.5,13.454-59.785,38.431-62.618,27.014
		c-1.474-5.935-1.482-8.882-2.751-13.893c1.125-0.417,2.13-1.036,2.908-1.922c3.889-4.425,1.15-12.921,1.938-18.244
		c0.561-3.792,1.216-5.93,5.211-7.318c8.273-2.875,7.384,3.748,5.939,9.109c-0.61,2.266-4.394,13.75,1.74,10.172
		c8-4.667,22.667-32,0-44C407.408,257.1,400.471,255.859,392.729,255.881L392.729,255.881z"/>
	<path id="path3350" inkscape:connector-curvature="0" sodipodi:nodetypes="ccccc" d="M268.944,254.628
		c-31.192,23.22,6.966,36.524,34.179,32.954c30.958-7.464,50.479-22.459,29.365-51.194c-9.473-12.922-24.846-19.196-40.599-18.268
		C260.742,220.669,261.458,240.59,268.944,254.628L268.944,254.628z"/>
	
		<path id="path3366" inkscape:connector-curvature="0" fill="#FFFFFF" stroke="#FFFFFF" stroke-linecap="round" stroke-linejoin="round" stroke-miterlimit="10" d="
		M624.667,339.333"/>
	<g id="Layer_4" display="none">
		<path id="path3369" display="inline" fill="#FFFFFF" d="M206.667,39.333c0,0-156,0-143.333,244.667h143.333V39.333z"/>
	</g>
	<g id="Layer_2">
	</g>
	<path id="path3391" inkscape:connector-curvature="0" sodipodi:nodetypes="cscsscscccccc" stroke="#000000" d="M202.881,298.5
		c0,0-102.579-65.501-3.523-126.554c88.553-54.581,76.005,11.213,76.005,11.213s94.694-39.871,154.502-29.903
		c55.524,9.254,29.903-78.497,79.742-38.625c49.84,39.872,8.723,85.973,8.723,85.973s46.101,14.952,33.642,80.989
		c-12.46,66.037-53.577,76.005-53.577,76.005L612,375.655L610.531,2.492L107.664,1.246L106.5,357.472l82.9-18.139L202.881,298.5z"/>
	
		<rect id="rect3403" x="429.731" y="228.019" transform="matrix(-0.978 0.2084 -0.2084 -0.978 915.2525 375.809)" fill="#FFFFFF" width="16.197" height="16.198"/>
	
		<rect id="rect3403-0" x="297.3" y="251.062" transform="matrix(-0.9781 0.2084 -0.2084 -0.9781 658.0945 448.9992)" fill="#FFFFFF" width="16.198" height="16.198"/>
	<path id="path3485" inkscape:connector-curvature="0" sodipodi:nodetypes="cscssc" stroke="#000000" d="M207.14,284.05
		c0,0-47.277-16.664-42.15-54.514c4.302-31.764,48.821-65.929,79.842-71.918c13.279-2.563,22.419,4.754,22.695,17.604
		c0.238,11.079-6.827,17.132-14.276,24.143C229.546,221.675,212.671,251.867,207.14,284.05z"/>
	<path id="path3487" inkscape:connector-curvature="0" sodipodi:nodetypes="cscssc" stroke="#000000" d="M460.391,156.994
		c0,0,14.755-22.716,21.182-38.002c7.229-17.194,22.428-2.18,22.428-2.18s47.682,30.703,9.968,80.989c0,0-7.787,5.996-16.197-10.279
		C489.359,171.245,460.391,156.994,460.391,156.994L460.391,156.994z"/>
</g>
<g id="Layer_2_1_">
	<path fill="#ED8E8E" d="M346.127,340.725c-1.931,0.887-3.432,2.063-4.355,3.606c-3.348,5.593,3.388,20.344,4.548,26.442
		c6.822,35.853,36.52,60.319,66.33,54.646s48.445-39.335,41.623-75.191c-2.997-15.757-5.776-29.317-22.986-23.972
		c-11.284,3.505-22.082,10.282-33.615,12.674C387.533,341.034,358.287,335.142,346.127,340.725z"/>
	<path fill="#BA7070" d="M431.062,326.257c-11.284,3.505-22.082,10.282-33.615,12.674c-10.138,2.103-39.384-3.79-51.544,1.794
		c-1.931,0.887-3.432,2.063-4.355,3.606c-3.348,5.593,3.388,20.344,4.548,26.442c6.822,35.853,36.52,60.32,66.33,54.646
		c12.598-2.396,29.899-7.92,43.255-49.765c-0.263-0.896,0.272-7.235-0.045-8.117c-27.414,54.383-47.359,55.962-64.359,42.962
		c-15-12-42-32-24-49c9-9,29-3,38,9c0-11,5-22,15-26c12.229-4.586,23.29-0.99,33.629,4.977
		C450.958,334.045,447.996,320.998,431.062,326.257z"/>
	<ellipse cx="202.881" cy="478.286" rx="70.381" ry="69.714"/>
	<ellipse cx="518.85" cy="504" rx="70.381" ry="69.714"/>
	<ellipse cx="132.074" cy="411.716" rx="24.411" ry="24.18"/>
	<ellipse cx="189.4" cy="375.654" rx="24.41" ry="24.18"/>
	<ellipse cx="267.532" cy="399.834" rx="24.41" ry="24.18"/>
	<ellipse cx="304.074" cy="503.716" rx="24.41" ry="24.18"/>
	<ellipse cx="400.297" cy="502.465" rx="24.41" ry="24.18"/>
	<ellipse cx="494.438" cy="399.834" rx="24.411" ry="24.18"/>
	<ellipse cx="562.795" cy="399.834" rx="24.41" ry="24.18"/>
	<ellipse cx="610.532" cy="435.896" rx="24.411" ry="24.18"/>
</g>
</svg>
