<?xml version="1.0" encoding="utf-8"?>
<!-- Generator: Adobe Illustrator 15.1.0, SVG Export Plug-In . SVG Version: 6.00 Build 0)  -->
<!DOCTYPE svg PUBLIC "-//W3C//DTD SVG 1.1//EN" "http://www.w3.org/Graphics/SVG/1.1/DTD/svg11.dtd">
<svg version="1.1" xmlns="http://www.w3.org/2000/svg" xmlns:xlink="http://www.w3.org/1999/xlink" x="0px" y="0px" width="612px"
	 height="1008px" viewBox="0 0 612 1008" enable-background="new 0 0 612 1008" xml:space="preserve">
<g id="Layer_1_copy">
	<path id="path3391_1_" inkscape:connector-curvature="0" sodipodi:nodetypes="cscsscscccccc" fill="#FFFFFF" d="M202.881,298.5
		c0,0-102.579-65.501-3.523-126.554c88.553-54.581,76.005,11.213,76.005,11.213s94.694-39.871,154.502-29.903
		c55.523,9.254,29.902-78.497,79.742-38.625s8.723,85.973,8.723,85.973s46.101,14.952,33.642,80.989
		c-12.46,66.037-53.576,76.005-53.576,76.005l113.577,71.892l-0.098,281.01H74.5V456.968l114.9-117.635L202.881,298.5z"/>
	
		<sodipodi:namedview  id="namedview3372" inkscape:pageopacity="0" inkscape:pageshadow="2" inkscape:window-width="942" inkscape:window-height="987" inkscape:window-x="960" inkscape:window-y="0" inkscape:current-layer="svg3336" inkscape:window-maximized="0" inkscape:zoom="0.80257937" gridtolerance="10" guidetolerance="10" inkscape:cx="416.02276" inkscape:cy="731.30015" pagecolor="#ffffff" showguides="false" bordercolor="#666666" showgrid="false" borderopacity="1" objecttolerance="10">
		</sodipodi:namedview>
	<path id="path3350-5_1_" inkscape:connector-curvature="0" sodipodi:nodetypes="ccccc" d="M472.67,232.042
		c31.192,23.22-6.967,36.523-34.18,32.954c-30.957-7.464-50.479-22.459-29.365-51.194c9.473-12.922,24.846-19.196,40.6-18.268
		C480.872,198.083,480.156,218.004,472.67,232.042L472.67,232.042z"/>
	<path id="path3348_2_" inkscape:connector-curvature="0" sodipodi:nodetypes="cccccccsccscsccccccssc" d="M392.729,255.451
		c-27.651,0.079-65.569,16.254-60.239,42.926c0,0,9.514,20.308,22.18,14.308c4.491-2.128,3.507-13.972,6-17.779
		c4.538-6.927,11.795-7.139,14.367-4.275c5.821,6.478-0.841,15.6,7.85,19.846c1.519,0.742,3.502,1.332,5.563,1.578
		c0.054,0.771,3.212,10.078,0.567,15.287c-3.317,6.539-23.596,9.484-66.658,4.336c-4.772-0.916-11.162,7.51,0.008,13.074
		c90.966-3.428,90.966-11.109,141.72-34.156c9.204-10.785,1.382-16.453-4.084-12.217c-13.5,13.453-59.785,38.431-62.618,27.014
		c-1.474-5.936-1.481-8.883-2.751-13.893c1.125-0.418,2.13-1.037,2.908-1.923c3.889-4.425,1.15-12.921,1.938-18.244
		c0.562-3.792,1.217-5.93,5.211-7.318c8.273-2.875,7.385,3.748,5.939,9.109c-0.61,2.266-4.394,13.75,1.74,10.172
		c8-4.668,22.667-32,0-44C407.408,256.67,400.471,255.429,392.729,255.451L392.729,255.451z"/>
	<path id="path3350_1_" inkscape:connector-curvature="0" sodipodi:nodetypes="ccccc" d="M268.944,254.628
		c-31.192,23.22,6.966,36.524,34.179,32.954c30.958-7.464,50.479-22.459,29.365-51.194c-9.474-12.922-24.847-19.196-40.599-18.268
		C260.742,220.669,261.458,240.59,268.944,254.628L268.944,254.628z"/>
	
		<path id="path3366_1_" inkscape:connector-curvature="0" fill="#FFFFFF" stroke="#FFFFFF" stroke-linecap="round" stroke-linejoin="round" stroke-miterlimit="10" d="
		M624.667,339.333"/>
	<g id="Layer_2_1_">
	</g>
	<path id="path3485_1_" inkscape:connector-curvature="0" sodipodi:nodetypes="cscssc" stroke="#000000" d="M207.14,284.05
		c0,0-47.277-16.664-42.15-54.514c4.302-31.764,48.821-65.929,79.842-71.918c13.279-2.563,22.419,4.754,22.695,17.604
		c0.238,11.079-6.827,17.132-14.276,24.143C229.546,221.675,212.671,251.867,207.14,284.05z"/>
	<path id="path3487_1_" inkscape:connector-curvature="0" sodipodi:nodetypes="cscssc" stroke="#000000" d="M460.391,156.994
		c0,0,14.756-22.716,21.183-38.002c7.229-17.194,22.428-2.18,22.428-2.18s47.682,30.703,9.968,80.989c0,0-7.787,5.996-16.196-10.279
		C489.359,171.245,460.391,156.994,460.391,156.994L460.391,156.994z"/>
</g>
<g id="Layer_4" display="none">
	<polygon id="close_1_" display="inline" fill="#FFFFFF" points="312.957,255.88 297.093,259.159 295.765,252.925 311.608,249.549 	
		"/>
	<polygon id="close" display="inline" fill="#FFFFFF" points="445.769,232.833 429.603,236.287 428.24,229.896 444.081,226.521 	"/>
	
		<rect id="open_3_" x="297.275" y="251.06" transform="matrix(0.978 -0.2084 0.2084 0.978 -47.304 69.3306)" display="inline" fill="#FFFFFF" width="16.199" height="16.199"/>
	
		<rect id="open_2_" x="429.75" y="228.03" transform="matrix(0.978 -0.2084 0.2084 0.978 -39.5988 96.4424)" display="inline" fill="#FFFFFF" width="16.196" height="16.198"/>
</g>
<g id="Layer_5" display="none">
	<g display="inline">
		<path fill="#D8D8D8" d="M506.993,472.846c0,0-139.661,4.594-70.135,168.535c15.63,36.855,94.335,43.242,128.465,17.172
			c12.619-9.641,16.422-23.023,22.102-35.217c3.561-7.646,6.561-15.41,8.319-23.391c2.873-13.041,3.721-26.426,5.64-39.561
			c3.793-25.955,4.195-59.031-24.856-78.294C558.952,470.437,529.195,470.195,506.993,472.846z"/>
		<path fill="#AFAFAF" d="M579.003,497.464c5.328,48.552-18.932,48.552-73.035,59.894c-46.535,9.754-60.816-17-67.637-59.894
			c-8.373-52.657,19.5-69.378,70.336-74.893C571.886,415.714,574.571,457.086,579.003,497.464z"/>
		<path d="M508.021,457.093c30.807,0,76.005,23.92,55.779,40.787c-18.039,15.044-24.973-13.917-55.779-13.917
			c-30.806,0-39.928,21.266-55.779,13.917C426.401,485.898,477.215,457.093,508.021,457.093z"/>
		<path d="M474.787,515.891c7.735-1.688,17.136,1.416,19.63,8.967c2.918,8.835-11.855,25.176-20.771,20.252
			c-6.541-3.611-10.356-10.121-9.814-17.589C464.31,520.962,469.098,517.131,474.787,515.891z"/>
		<path d="M568.437,513.451c-0.716,5.794-6.799,11.637-15.807,15.696c-12.277,5.534-28.016-4.638-22.638-12.151
			c4.597-6.42,17.151-10.607,26.683-10.703C563.686,506.221,569.062,508.361,568.437,513.451z"/>
		<path d="M462.988,423.109c-0.029-4.657-0.45-8.323-5.245-8.323c-5.041,0-5.934,4.047-5.934,9.041c0,0.068,0.002,0.134,0.003,0.203
			c-6.057,3.126-7.321,10.951-7.321,20.115c0,11.915,2.129,21.574,14.158,21.574c12.028,0,12.522-9.659,12.522-21.574
			C471.172,433.873,470.798,425.284,462.988,423.109z"/>
		<path d="M498.627,407.319c-0.004-4.923-0.259-8.889-5.247-8.889c-5.041,0-5.934,4.047-5.934,9.041
			c0,0.037,0.001,0.072,0.001,0.109c-6.78,2.82-8.16,10.933-8.16,20.505c0,11.916,2.13,21.574,14.159,21.574
			c12.027,0,12.521-9.658,12.521-21.574C505.968,418.196,505.62,409.867,498.627,407.319z"/>
		<path d="M534.497,407.173c-0.011-4.855-0.309-8.743-5.247-8.743c-5.041,0-5.934,4.047-5.934,9.041c0,0.097,0.003,0.19,0.004,0.286
			c-6.43,2.972-7.753,10.95-7.753,20.329c0,11.916,2.129,21.574,14.158,21.574c12.027,0,12.521-9.658,12.521-21.574
			C542.247,418.004,541.892,409.54,534.497,407.173z"/>
		<path d="M571.251,423.232c-0.023-4.716-0.409-8.446-5.246-8.446c-5.037,0-5.933,4.042-5.934,9.031
			c-6.428,2.973-7.75,10.95-7.75,20.328c0,11.916,2.129,21.574,14.158,21.574c12.027,0,12.523-9.658,12.523-21.574
			C579.003,434.063,578.646,425.599,571.251,423.232z"/>
	</g>
	<g display="inline">
		<path fill="#D8D8D8" d="M181.803,478.509c0,0-139.662,4.594-70.135,168.535c15.63,36.855,94.335,43.243,128.465,17.172
			c12.619-9.64,16.422-23.023,22.101-35.217c3.561-7.646,6.561-15.41,8.319-23.391c2.873-13.041,3.721-26.426,5.64-39.561
			c3.792-25.956,4.195-59.03-24.857-78.294C233.761,476.1,204.004,475.858,181.803,478.509z"/>
		<path fill="#AFAFAF" d="M253.812,503.127c5.329,48.552-18.931,48.552-73.034,59.893c-46.536,9.755-60.817-17-67.637-59.893
			c-8.373-52.657,19.5-69.378,70.336-74.893C246.695,421.377,249.38,462.749,253.812,503.127z"/>
		<path d="M182.83,462.756c30.806,0,76.005,23.92,55.779,40.787c-18.04,15.044-24.973-13.917-55.779-13.917
			c-30.806,0-39.928,21.266-55.779,13.917C101.211,491.562,152.024,462.756,182.83,462.756z"/>
		<path d="M149.596,521.553c7.735-1.687,17.136,1.417,19.63,8.968c2.918,8.835-11.856,25.176-20.771,20.252
			c-6.541-3.612-10.356-10.122-9.814-17.589C139.118,526.625,143.907,522.794,149.596,521.553z"/>
		<path d="M243.245,519.113c-0.715,5.795-6.798,11.639-15.807,15.697c-12.277,5.533-28.016-4.637-22.637-12.15
			c4.596-6.422,17.151-10.607,26.683-10.704C238.495,511.885,243.871,514.025,243.245,519.113z"/>
		<path d="M137.797,428.772c-0.029-4.657-0.45-8.323-5.245-8.323c-5.041,0-5.934,4.047-5.934,9.041c0,0.068,0.002,0.135,0.002,0.203
			c-6.055,3.126-7.321,10.951-7.321,20.115c0,11.915,2.129,21.574,14.158,21.574c12.028,0,12.522-9.659,12.522-21.574
			C145.981,439.536,145.606,430.947,137.797,428.772z"/>
		<path d="M173.437,412.982c-0.005-4.923-0.259-8.889-5.248-8.889c-5.041,0-5.934,4.047-5.934,9.041
			c0,0.037,0.001,0.072,0.001,0.108c-6.781,2.82-8.161,10.933-8.161,20.506c0,11.916,2.129,21.574,14.159,21.574
			c12.027,0,12.522-9.658,12.522-21.574C180.777,423.859,180.429,415.53,173.437,412.982z"/>
		<path d="M209.306,412.836c-0.01-4.855-0.309-8.743-5.247-8.743c-5.041,0-5.934,4.047-5.934,9.041c0,0.096,0.003,0.19,0.003,0.286
			c-6.43,2.972-7.753,10.95-7.753,20.329c0,11.916,2.129,21.574,14.158,21.574c12.027,0,12.522-9.658,12.522-21.574
			C217.057,423.667,216.7,415.203,209.306,412.836z"/>
		<path d="M246.06,428.895c-0.023-4.715-0.408-8.446-5.246-8.446c-5.038,0-5.932,4.042-5.934,9.031
			c-6.427,2.974-7.75,10.95-7.75,20.328c0,11.916,2.129,21.574,14.159,21.574c12.027,0,12.522-9.658,12.522-21.574
			C253.812,439.727,253.455,431.262,246.06,428.895z"/>
	</g>
</g>
<g id="Layer_3" display="none">
	<path id="path3348_1_" inkscape:connector-curvature="0" sodipodi:nodetypes="cccccccsccscsccccccssc" display="inline" d="
		M392.729,255.881c-27.651,0.079-65.569,16.254-60.239,42.926c0,0,9.514,20.307,22.18,14.307c4.491-2.128,3.507-13.972,6-17.779
		c4.538-6.927,11.795-7.139,14.367-4.275c5.821,6.478-0.841,15.6,7.85,19.846c1.519,0.742,3.502,1.332,5.563,1.578
		c0.054,0.771,3.212,10.078,0.567,15.287c-3.317,6.54-23.596,9.485-66.658,4.336c-4.772-0.916-11.162,7.51,0.008,13.074
		c85.136,23.32,111.136,9.126,141.72-34.156c9.204-10.785,1.382-16.453-4.084-12.217c-13.5,13.454-59.785,38.431-62.618,27.014
		c-1.474-5.935-1.481-8.882-2.751-13.893c1.125-0.417,2.13-1.036,2.908-1.922c3.889-4.425,1.15-12.921,1.938-18.244
		c0.562-3.792,1.217-5.93,5.211-7.318c8.273-2.875,7.385,3.748,5.939,9.109c-0.61,2.266-4.394,13.75,1.74,10.172
		c8-4.667,22.667-32,0-44C407.408,257.1,400.471,255.859,392.729,255.881L392.729,255.881z"/>
	<path display="inline" fill="#ED8E8E" d="M346.127,340.725c-1.931,0.887-3.432,2.063-4.354,3.606
		c-3.349,5.593,3.388,20.344,4.548,26.442c6.821,35.853,36.52,60.319,66.33,54.646c29.81-5.673,48.444-39.335,41.623-75.191
		c-2.997-15.757-5.776-29.317-22.986-23.972c-11.284,3.505-22.082,10.282-33.615,12.674
		C387.533,341.034,358.287,335.142,346.127,340.725z"/>
	<path display="inline" fill="#BA7070" d="M431.063,326.257c-11.284,3.505-22.082,10.282-33.615,12.674
		c-10.139,2.103-39.384-3.79-51.544,1.794c-1.932,0.887-3.433,2.063-4.355,3.606c-3.348,5.593,3.388,20.344,4.548,26.442
		c6.822,35.853,36.521,60.32,66.33,54.646c12.599-2.396,29.899-7.92,43.255-49.765c-0.263-0.896,0.272-7.235-0.045-8.117
		c-27.414,54.383-47.358,55.962-64.358,42.962c-15-12-42-32-24-49c9-9,29-3,38,9c0-11,5-22,15-26
		c12.229-4.586,23.29-0.99,33.629,4.977C450.958,334.045,447.996,320.998,431.063,326.257z"/>
</g>
</svg>
