<?xml version="1.0" encoding="UTF-8" standalone="no"?>
<!-- Generator: Adobe Illustrator 15.1.0, SVG Export Plug-In . SVG Version: 6.00 Build 0)  -->

<svg
   xmlns:dc="http://purl.org/dc/elements/1.1/"
   xmlns:cc="http://creativecommons.org/ns#"
   xmlns:rdf="http://www.w3.org/1999/02/22-rdf-syntax-ns#"
   xmlns:svg="http://www.w3.org/2000/svg"
   xmlns="http://www.w3.org/2000/svg"
   xmlns:sodipodi="http://sodipodi.sourceforge.net/DTD/sodipodi-0.dtd"
   xmlns:inkscape="http://www.inkscape.org/namespaces/inkscape"
   version="1.1"
   x="0px"
   y="0px"
   width="612px"
   height="1008px"
   viewBox="0 0 612 1008"
   enable-background="new 0 0 612 1008"
   xml:space="preserve"
   id="svg3336"
   inkscape:version="0.91 r13725"
   sodipodi:docname="panda G_03.svg"><metadata
   id="metadata3403"><rdf:RDF><cc:Work
       rdf:about=""><dc:format>image/svg+xml</dc:format><dc:type
         rdf:resource="http://purl.org/dc/dcmitype/StillImage" /></cc:Work></rdf:RDF></metadata><defs
   id="defs3401">
	
	

	
	
		
	
	
	
	
		
	
	
	
</defs><sodipodi:namedview
   pagecolor="#ffffff"
   bordercolor="#666666"
   borderopacity="1"
   objecttolerance="10"
   gridtolerance="10"
   guidetolerance="10"
   inkscape:pageopacity="0"
   inkscape:pageshadow="2"
   inkscape:window-width="1113"
   inkscape:window-height="987"
   id="namedview3399"
   showgrid="false"
   inkscape:zoom="0.80257937"
   inkscape:cx="306"
   inkscape:cy="504"
   inkscape:window-x="-32000"
   inkscape:window-y="-32000"
   inkscape:window-maximized="0"
   inkscape:current-layer="svg3336" />
<path
   style="fill:#ffffff"
   inkscape:connector-curvature="0"
   d="m 202.881,298.5 c 0,0 -102.579,-65.501 -3.523,-126.554 88.553,-54.581 76.005,11.213 76.005,11.213 0,0 94.694,-39.871 154.502,-29.903 55.523,9.254 29.902,-78.497 79.742,-38.625 49.84,39.872 8.723,85.973 8.723,85.973 0,0 46.101,14.952 33.642,80.989 -12.46,66.037 -53.576,76.005 -53.576,76.005 l 113.577,71.892 -0.098,281.01 -537.375,0 0,-253.532 114.9,-117.635 13.481,-40.833 z"
   nodetypes="cscsscscccccc"
   connector-curvature="0"
   id="path3391_1_" /><path
   inkscape:connector-curvature="0"
   d="m 472.67,232.042 c 31.192,23.22 -6.967,36.523 -34.18,32.954 -30.957,-7.464 -50.479,-22.459 -29.365,-51.194 9.473,-12.922 24.846,-19.196 40.6,-18.268 31.147,2.549 30.431,22.47 22.945,36.508 l 0,0 z"
   nodetypes="ccccc"
   connector-curvature="0"
   id="path3350-5_1_" /><path
   inkscape:connector-curvature="0"
   d="m 392.729,255.451 c -27.651,0.079 -65.569,16.254 -60.239,42.926 0,0 9.514,20.308 22.18,14.308 4.491,-2.128 3.507,-13.972 6,-17.779 4.538,-6.927 11.795,-7.139 14.367,-4.275 5.821,6.478 -0.841,15.6 7.85,19.846 1.519,0.742 3.502,1.332 5.563,1.578 0.054,0.771 3.212,10.078 0.567,15.287 -3.317,6.539 -23.596,9.484 -66.658,4.336 -4.772,-0.916 -11.162,7.51 0.008,13.074 90.966,-3.428 90.966,-11.109 141.72,-34.156 9.204,-10.785 1.382,-16.453 -4.084,-12.217 -13.5,13.453 -59.785,38.431 -62.618,27.014 -1.474,-5.936 -1.481,-8.883 -2.751,-13.893 1.125,-0.418 2.13,-1.037 2.908,-1.923 3.889,-4.425 1.15,-12.921 1.938,-18.244 0.562,-3.792 1.217,-5.93 5.211,-7.318 8.273,-2.875 7.385,3.748 5.939,9.109 -0.61,2.266 -4.394,13.75 1.74,10.172 8,-4.668 22.667,-32 0,-44 -4.962,-2.626 -11.899,-3.867 -19.641,-3.845 l 0,0 z"
   nodetypes="cccccccsccscsccccccssc"
   connector-curvature="0"
   id="path3348_2_" /><path
   inkscape:connector-curvature="0"
   d="m 268.944,254.628 c -31.192,23.22 6.966,36.524 34.179,32.954 30.958,-7.464 50.479,-22.459 29.365,-51.194 -9.474,-12.922 -24.847,-19.196 -40.599,-18.268 -31.147,2.549 -30.431,22.47 -22.945,36.508 l 0,0 z"
   nodetypes="ccccc"
   connector-curvature="0"
   id="path3350_1_" /><path
   style="fill:#ffffff;stroke:#ffffff;stroke-linecap:round;stroke-linejoin:round;stroke-miterlimit:10"
   inkscape:connector-curvature="0"
   d="M 624.667,339.333"
   stroke-miterlimit="10"
   connector-curvature="0"
   id="path3366_1_" /><g
   id="Layer_2_1_">
	</g><path
   style="stroke:#000000"
   inkscape:connector-curvature="0"
   d="m 207.14,284.05 c 0,0 -47.277,-16.664 -42.15,-54.514 4.302,-31.764 48.821,-65.929 79.842,-71.918 13.279,-2.563 22.419,4.754 22.695,17.604 0.238,11.079 -6.827,17.132 -14.276,24.143 -23.705,22.31 -40.58,52.502 -46.111,84.685 z"
   nodetypes="cscssc"
   connector-curvature="0"
   id="path3485_1_" /><path
   style="stroke:#000000"
   inkscape:connector-curvature="0"
   d="m 460.391,156.994 c 0,0 14.756,-22.716 21.183,-38.002 7.229,-17.194 22.428,-2.18 22.428,-2.18 0,0 47.682,30.703 9.968,80.989 0,0 -7.787,5.996 -16.196,-10.279 -8.415,-16.277 -37.383,-30.528 -37.383,-30.528 l 0,0 z"
   nodetypes="cscssc"
   connector-curvature="0"
   id="path3487_1_" />
<g
   id="Layer_4">
	<polygon
   id="close_1_"
   fill="#FFFFFF"
   points="312.957,255.88 297.093,259.159 295.765,252.925 311.608,249.549  " />
	<polygon
   id="close"
   fill="#FFFFFF"
   points="445.769,232.833 429.603,236.287 428.24,229.896 444.081,226.521  " />
	
		<rect
   id="open_3_"
   x="297.275"
   y="251.06"
   transform="matrix(0.978 -0.2084 0.2084 0.978 -47.304 69.3306)"
   fill="#FFFFFF"
   width="16.199"
   height="16.199" />
	
		<rect
   id="open_2_"
   x="429.75"
   y="228.03"
   transform="matrix(0.978 -0.2084 0.2084 0.978 -39.5988 96.4424)"
   fill="#FFFFFF"
   width="16.196"
   height="16.198" />
</g>
<g
   id="g3353"
   transform="matrix(-1,0,0,1,1020.6559,0)">
		<path
   style="fill:#d8d8d8"
   inkscape:connector-curvature="0"
   id="path3355"
   d="m 506.993,472.846 c 0,0 -139.661,4.594 -70.135,168.535 15.63,36.855 94.335,43.242 128.465,17.172 12.619,-9.641 16.422,-23.023 22.102,-35.217 3.561,-7.646 6.561,-15.41 8.319,-23.391 2.873,-13.041 3.721,-26.426 5.64,-39.561 3.793,-25.955 4.195,-59.031 -24.856,-78.294 -17.576,-11.653 -47.333,-11.895 -69.535,-9.244 z" />
		<path
   style="fill:#afafaf"
   inkscape:connector-curvature="0"
   id="path3357"
   d="m 579.003,497.464 c 5.328,48.552 -18.932,48.552 -73.035,59.894 -46.535,9.754 -60.816,-17 -67.637,-59.894 -8.373,-52.657 19.5,-69.378 70.336,-74.893 63.219,-6.857 65.904,34.515 70.336,74.893 z" />
		<path
   inkscape:connector-curvature="0"
   id="path3359"
   d="m 508.021,457.093 c 30.807,0 76.005,23.92 55.779,40.787 -18.039,15.044 -24.973,-13.917 -55.779,-13.917 -30.806,0 -39.928,21.266 -55.779,13.917 -25.841,-11.982 24.973,-40.787 55.779,-40.787 z" />
		<path
   inkscape:connector-curvature="0"
   id="path3361"
   d="m 474.787,515.891 c 7.735,-1.688 17.136,1.416 19.63,8.967 2.918,8.835 -11.855,25.176 -20.771,20.252 -6.541,-3.611 -10.356,-10.121 -9.814,-17.589 0.478,-6.559 5.266,-10.39 10.955,-11.63 z" />
		<path
   inkscape:connector-curvature="0"
   id="path3363"
   d="m 568.437,513.451 c -0.716,5.794 -6.799,11.637 -15.807,15.696 -12.277,5.534 -28.016,-4.638 -22.638,-12.151 4.597,-6.42 17.151,-10.607 26.683,-10.703 7.011,-0.072 12.387,2.068 11.762,7.158 z" />
		<path
   inkscape:connector-curvature="0"
   id="path3365"
   d="m 462.988,423.109 c -0.029,-4.657 -0.45,-8.323 -5.245,-8.323 -5.041,0 -5.934,4.047 -5.934,9.041 0,0.068 0.002,0.134 0.003,0.203 -6.057,3.126 -7.321,10.951 -7.321,20.115 0,11.915 2.129,21.574 14.158,21.574 12.028,0 12.522,-9.659 12.522,-21.574 0.001,-10.272 -0.373,-18.861 -8.183,-21.036 z" />
		<path
   inkscape:connector-curvature="0"
   id="path3367"
   d="m 498.627,407.319 c -0.004,-4.923 -0.259,-8.889 -5.247,-8.889 -5.041,0 -5.934,4.047 -5.934,9.041 0,0.037 10e-4,0.072 10e-4,0.109 -6.78,2.82 -8.16,10.933 -8.16,20.505 0,11.916 2.13,21.574 14.159,21.574 12.027,0 12.521,-9.658 12.521,-21.574 0.001,-9.889 -0.347,-18.218 -7.34,-20.766 z" />
		<path
   inkscape:connector-curvature="0"
   id="path3369"
   d="m 534.497,407.173 c -0.011,-4.855 -0.309,-8.743 -5.247,-8.743 -5.041,0 -5.934,4.047 -5.934,9.041 0,0.097 0.003,0.19 0.004,0.286 -6.43,2.972 -7.753,10.95 -7.753,20.329 0,11.916 2.129,21.574 14.158,21.574 12.027,0 12.521,-9.658 12.521,-21.574 10e-4,-10.082 -0.354,-18.546 -7.749,-20.913 z" />
		<path
   inkscape:connector-curvature="0"
   id="path3371"
   d="m 571.251,423.232 c -0.023,-4.716 -0.409,-8.446 -5.246,-8.446 -5.037,0 -5.933,4.042 -5.934,9.031 -6.428,2.973 -7.75,10.95 -7.75,20.328 0,11.916 2.129,21.574 14.158,21.574 12.027,0 12.523,-9.658 12.523,-21.574 0.001,-10.082 -0.356,-18.546 -7.751,-20.913 z" />
	</g><g
   id="g3373">
		<path
   style="fill:#d8d8d8"
   inkscape:connector-curvature="0"
   id="path3375"
   d="m 181.803,478.509 c 0,0 -139.662,4.594 -70.135,168.535 15.63,36.855 94.335,43.243 128.465,17.172 12.619,-9.64 16.422,-23.023 22.101,-35.217 3.561,-7.646 6.561,-15.41 8.319,-23.391 2.873,-13.041 3.721,-26.426 5.64,-39.561 3.792,-25.956 4.195,-59.03 -24.857,-78.294 -17.575,-11.653 -47.332,-11.895 -69.533,-9.244 z" />
		<path
   style="fill:#afafaf"
   inkscape:connector-curvature="0"
   id="path3377"
   d="m 253.812,503.127 c 5.329,48.552 -18.931,48.552 -73.034,59.893 -46.536,9.755 -60.817,-17 -67.637,-59.893 -8.373,-52.657 19.5,-69.378 70.336,-74.893 63.218,-6.857 65.903,34.515 70.335,74.893 z" />
		<path
   inkscape:connector-curvature="0"
   id="path3379"
   d="m 182.83,462.756 c 30.806,0 76.005,23.92 55.779,40.787 -18.04,15.044 -24.973,-13.917 -55.779,-13.917 -30.806,0 -39.928,21.266 -55.779,13.917 -25.84,-11.981 24.973,-40.787 55.779,-40.787 z" />
		<path
   inkscape:connector-curvature="0"
   id="path3381"
   d="m 149.596,521.553 c 7.735,-1.687 17.136,1.417 19.63,8.968 2.918,8.835 -11.856,25.176 -20.771,20.252 -6.541,-3.612 -10.356,-10.122 -9.814,-17.589 0.477,-6.559 5.266,-10.39 10.955,-11.631 z" />
		<path
   inkscape:connector-curvature="0"
   id="path3383"
   d="m 243.245,519.113 c -0.715,5.795 -6.798,11.639 -15.807,15.697 -12.277,5.533 -28.016,-4.637 -22.637,-12.15 4.596,-6.422 17.151,-10.607 26.683,-10.704 7.011,-0.071 12.387,2.069 11.761,7.157 z" />
		<path
   inkscape:connector-curvature="0"
   id="path3385"
   d="m 137.797,428.772 c -0.029,-4.657 -0.45,-8.323 -5.245,-8.323 -5.041,0 -5.934,4.047 -5.934,9.041 0,0.068 0.002,0.135 0.002,0.203 -6.055,3.126 -7.321,10.951 -7.321,20.115 0,11.915 2.129,21.574 14.158,21.574 12.028,0 12.522,-9.659 12.522,-21.574 0.002,-10.272 -0.373,-18.861 -8.182,-21.036 z" />
		<path
   inkscape:connector-curvature="0"
   id="path3387"
   d="m 173.437,412.982 c -0.005,-4.923 -0.259,-8.889 -5.248,-8.889 -5.041,0 -5.934,4.047 -5.934,9.041 0,0.037 0.001,0.072 0.001,0.108 -6.781,2.82 -8.161,10.933 -8.161,20.506 0,11.916 2.129,21.574 14.159,21.574 12.027,0 12.522,-9.658 12.522,-21.574 10e-4,-9.889 -0.347,-18.218 -7.339,-20.766 z" />
		<path
   inkscape:connector-curvature="0"
   id="path3389"
   d="m 209.306,412.836 c -0.01,-4.855 -0.309,-8.743 -5.247,-8.743 -5.041,0 -5.934,4.047 -5.934,9.041 0,0.096 0.003,0.19 0.003,0.286 -6.43,2.972 -7.753,10.95 -7.753,20.329 0,11.916 2.129,21.574 14.158,21.574 12.027,0 12.522,-9.658 12.522,-21.574 0.002,-10.082 -0.355,-18.546 -7.749,-20.913 z" />
		<path
   inkscape:connector-curvature="0"
   id="path3391"
   d="m 246.06,428.895 c -0.023,-4.715 -0.408,-8.446 -5.246,-8.446 -5.038,0 -5.932,4.042 -5.934,9.031 -6.427,2.974 -7.75,10.95 -7.75,20.328 0,11.916 2.129,21.574 14.159,21.574 12.027,0 12.522,-9.658 12.522,-21.574 0.001,-10.081 -0.356,-18.546 -7.751,-20.913 z" />
	</g>
<g
   id="Layer_3">
	<path
   id="path3348_1_"
   connector-curvature="0"
   nodetypes="cccccccsccscsccccccssc"
   d="M392.729,255.881   c-27.651,0.079-65.569,16.254-60.239,42.926c0,0,9.514,20.307,22.18,14.307c4.491-2.128,3.507-13.972,6-17.779   c4.538-6.927,11.795-7.139,14.367-4.275c5.821,6.478-0.841,15.6,7.85,19.846c1.519,0.742,3.502,1.332,5.563,1.578   c0.054,0.771,3.212,10.078,0.567,15.287c-3.317,6.54-23.596,9.485-66.658,4.336c-4.772-0.916-11.162,7.51,0.008,13.074   c85.136,23.32,111.136,9.126,141.72-34.156c9.204-10.785,1.382-16.453-4.084-12.217c-13.5,13.454-59.785,38.431-62.618,27.014   c-1.474-5.935-1.481-8.882-2.751-13.893c1.125-0.417,2.13-1.036,2.908-1.922c3.889-4.425,1.15-12.921,1.938-18.244   c0.562-3.792,1.217-5.93,5.211-7.318c8.273-2.875,7.385,3.748,5.939,9.109c-0.61,2.266-4.394,13.75,1.74,10.172   c8-4.667,22.667-32,0-44C407.408,257.1,400.471,255.859,392.729,255.881L392.729,255.881z" />
	<path
   fill="#ED8E8E"
   d="M346.127,340.725c-1.931,0.887-3.432,2.063-4.354,3.606c-3.349,5.593,3.388,20.344,4.548,26.442   c6.821,35.853,36.52,60.319,66.33,54.646c29.81-5.673,48.444-39.335,41.623-75.191c-2.997-15.757-5.776-29.317-22.986-23.972   c-11.284,3.505-22.082,10.282-33.615,12.674C387.533,341.034,358.287,335.142,346.127,340.725z"
   id="path3395" />
	<path
   fill="#BA7070"
   d="M431.063,326.257c-11.284,3.505-22.082,10.282-33.615,12.674c-10.139,2.103-39.384-3.79-51.544,1.794   c-1.932,0.887-3.433,2.063-4.355,3.606c-3.348,5.593,3.388,20.344,4.548,26.442c6.822,35.853,36.521,60.32,66.33,54.646   c12.599-2.396,29.899-7.92,43.255-49.765c-0.263-0.896,0.272-7.235-0.045-8.117c-27.414,54.383-47.358,55.962-64.358,42.962   c-15-12-42-32-24-49c9-9,29-3,38,9c0-11,5-22,15-26c12.229-4.586,23.29-0.99,33.629,4.977   C450.958,334.045,447.996,320.998,431.063,326.257z"
   id="path3397" />
</g>
</svg>